# xmcd
#
# Track frame offsets: 
#        150
#        8407
#        12642
#        18372
#        26725
#        32600
#        36462
#        41997
#        48660
#        55722
#        61372
#        65620
#        71085
#        76867
#        81365
#        87670
#        92457
#        97925
#        103632
#        110455
#        116420
#        122785
#        127980
#        134552
#        141610
#        148552
#        154865
#        162295
#        168870
#        175095
#        182725
#        188382
#        193875
#        198915
#        207140
#        212950
#        220645
#        225550
#        233062
#        240305
#        246455
#        252100
#        259007
#        265800
#        269815
#        278117
#        283350
#        292137
#        301415
#        306285
#        311477
#        316757
#        321672
#        326660
#        331795
#        336870
#        342492
#
# Disc length: 4639 seconds
#
# Revision: 6
# Processed by: cddbd v1.5.2PL0 Copyright (c) Steve Scherf et al.
# Submitted via: ExactAudioCopy v1.0b3
#
DISCID=5a121d39
DTITLE=Various Artist - 十年百曲 J-Pop Hit Tracks (Disc1)
DYEAR=1998
DGENRE=J-Pop
TTITLE0=安室奈美恵 Namie Amuro - Can You Celebrate?
TTITLE1=H Jungle With T - Wow War Tonight
TTITLE2=H Jungle With T - Going Going Home
TTITLE3=H Jungle With T - Friendship
TTITLE4=大賀埜々 Yaya Auga - Close To The Night
TTITLE5=hitomi - By Myself
TTITLE6=天方直実 Naomi Amagata - ....Tears
TTITLE7=globe - Departures
TTITLE8=安室奈美恵 Namie Amuro - Don't Wanna Cry
TTITLE9=TRF - Frame
TTITLE10=hitomi - Candy Girl
TTITLE11=hitomi - Sexy
TTITLE12=安室奈美恵 Namie Amuro - You're My Sunshine
TTITLE13=globe - Face
TTITLE14=TRF - Overnight Sensation 〜時代はあなたに委ねてる〜
TTITLE15=globe - Freedom
TTITLE16=globe - Feel Like Dance
TTITLE17=天方直実 Naomi Amagata - 逢いたい君がいない
TTITLE18=globe - Love Again
TTITLE19=安室奈美恵 Namie Amuro - Body Feels Exit
TTITLE20=TRF - Survival Dance ～No No Cry More～
TTITLE21=TRF - Boy Meets Girl
TTITLE22=TRF - EZ Do Dance
TTITLE23=Moon Child - Escape
TTITLE24=Every Little Thing - Time Goes By
TTITLE25=Moon Child - Hallelujah In The Snow
TTITLE26=D-Loop - Just Place Of Love
TTITLE27=Favorite Blue - Movin' On
TTITLE28=m.c.A.T - Super Happy
TTITLE29=Favorite Blue - Missing Place
TTITLE30=Every Little Thing - For The Moment
TTITLE31=m.c.A.T - Funky Gutsman!
TTITLE32=m.c.A.T - Bomb A Head!
TTITLE33=Every Little Thing - 出逢った頃のように
TTITLE34=Moon Child - Requiem For The Man Of Nomad
TTITLE35=浜崎あゆみ Ayumi Hamasaki - Poker Face
TTITLE36=守永初美 Hatsumi Morinaga - 青空のKnife
TTITLE37=Every Little Thing - Feel My Heart
TTITLE38=Every Little Thing - Dear My Friend
TTITLE39=東京スカパラダイスオーケストラ - 愛があるかい?
TTITLE40=D-Loop - Love Me Tender
TTITLE41=Favorite Blue - 愛よりも激しく,誰よりも愛しく
TTITLE42=MAX - Give Me A Shake
TTITLE43=Dance☆Man - 背の高いヤツはジャマ
TTITLE44=Coming Century - 夏のかけら
TTITLE45=D&D - In Your Eyes
TTITLE46=V6 - 愛なんだ
TTITLE47=20th century - Always
TTITLE48=東京プリン - 合コン哀歌
TTITLE49=V6 - Music For The People
TTITLE50=MAX - Get My Love!
TTITLE51=MAX - Tora Tora Tora
TTITLE52=MAX - Seventies
TTITLE53=Shu:Do - In The Heat Of The Night
TTITLE54=D&D - Shape Up Love
TTITLE55=D&D - Brand New Love
TTITLE56=V6 - Be Yourself!
EXTD=YEAR: 1998
EXTT0=
EXTT1=
EXTT2=
EXTT3=
EXTT4=
EXTT5=
EXTT6=
EXTT7=
EXTT8=
EXTT9=
EXTT10=
EXTT11=
EXTT12=
EXTT13=
EXTT14=
EXTT15=
EXTT16=
EXTT17=
EXTT18=
EXTT19=
EXTT20=
EXTT21=
EXTT22=
EXTT23=
EXTT24=
EXTT25=
EXTT26=
EXTT27=
EXTT28=
EXTT29=
EXTT30=
EXTT31=
EXTT32=
EXTT33=
EXTT34=
EXTT35=
EXTT36=
EXTT37=
EXTT38=
EXTT39=
EXTT40=
EXTT41=
EXTT42=
EXTT43=
EXTT44=
EXTT45=
EXTT46=
EXTT47=
EXTT48=
EXTT49=
EXTT50=
EXTT51=
EXTT52=
EXTT53=
EXTT54=
EXTT55=
EXTT56=
PLAYORDER=
